<?xml version="1.0" standalone="no"?>
<!DOCTYPE svg PUBLIC "-//W3C//DTD SVG 20010904//EN"
 "http://www.w3.org/TR/2001/REC-SVG-20010904/DTD/svg10.dtd">
<svg version="1.0" xmlns="http://www.w3.org/2000/svg"
 width="586.000000pt" height="586.000000pt" viewBox="0 0 586.000000 586.000000"
 preserveAspectRatio="xMidYMid meet">
<metadata>
Created by potrace 1.11, written by Peter Selinger 2001-2013
</metadata>
<g transform="translate(0.000000,586.000000) scale(0.100000,-0.100000)"
fill="#000000" stroke="none">
<path d="M2646 5684 c-143 -18 -386 -78 -516 -129 -539 -212 -962 -596 -1214
-1105 -109 -220 -172 -418 -213 -665 -25 -155 -25 -516 0 -670 81 -486 293
-908 627 -1245 181 -182 354 -309 570 -420 312 -158 606 -235 950 -247 625
-22 1219 210 1660 647 191 190 316 363 434 600 109 220 172 418 213 665 25
155 25 516 0 670 -41 247 -99 429 -207 650 -121 249 -245 422 -440 615 -309
306 -682 508 -1117 604 -203 45 -516 57 -747 30z m626 -88 c451 -71 877 -293
1215 -634 404 -407 631 -995 610 -1577 -21 -564 -227 -1049 -616 -1447 -85
-88 -98 -98 -130 -98 -65 1 -112 33 -271 190 -85 84 -170 163 -190 176 -20 13
-67 30 -105 37 -62 11 -71 15 -84 42 -8 17 -29 51 -48 77 -71 98 -142 304
-145 424 -1 48 5 70 29 119 17 33 36 80 42 103 22 82 49 132 70 132 15 0 23
10 31 41 6 22 25 74 41 116 32 78 69 230 90 368 7 45 18 84 26 88 8 5 13 29
13 69 0 46 4 64 17 73 16 12 14 20 -25 103 -61 127 -70 170 -88 414 -16 207
-16 221 2 294 13 56 28 91 56 128 30 40 38 59 38 93 0 37 -3 43 -21 43 -16 0
-19 4 -14 18 15 36 17 53 11 87 -8 42 -30 65 -60 65 -23 0 -118 -70 -192 -142
-35 -33 -50 -41 -100 -47 -52 -7 -63 -13 -99 -53 -22 -25 -58 -78 -80 -118
-31 -57 -50 -80 -85 -101 -137 -84 -151 -106 -72 -111 40 -3 47 -6 50 -26 15
-101 -214 -447 -387 -585 -96 -76 -332 -234 -380 -254 -20 -9 -115 -44 -212
-78 -202 -71 -262 -107 -351 -205 -49 -55 -69 -70 -107 -81 -66 -18 -101 -36
-144 -78 -53 -50 -101 -133 -131 -225 -29 -88 -80 -178 -128 -225 -45 -44 -89
-53 -203 -43 -52 4 -94 5 -93 1 2 -4 47 -48 100 -98 154 -144 251 -178 359
-129 82 37 114 76 144 171 36 114 64 157 129 200 31 21 69 55 85 77 34 48 41
39 41 -55 0 -61 -2 -66 -71 -172 -39 -59 -87 -125 -107 -145 -35 -37 -36 -39
-23 -73 16 -45 41 -275 41 -385 0 -49 8 -120 20 -168 11 -46 20 -85 20 -88 0
-2 -54 -31 -120 -64 l-121 -61 -27 20 c-55 39 -261 259 -328 351 -419 568
-541 1268 -339 1935 203 668 730 1207 1397 1428 155 52 267 74 508 101 75 9
420 -4 512 -18z m-208 -2604 c10 -16 38 -392 34 -454 -3 -35 -11 -77 -18 -94
-12 -29 -11 -34 13 -65 40 -53 90 -188 76 -205 -17 -20 -65 -31 -239 -54 -211
-28 -333 -54 -447 -95 -53 -19 -99 -32 -102 -30 -2 3 3 51 12 108 23 141 68
230 158 317 73 70 108 137 149 283 23 83 46 122 104 175 47 44 102 74 181 103
57 20 72 22 79 11z m-738 -324 c-41 -111 -64 -159 -83 -175 l-26 -21 11 -96
c16 -125 14 -189 -6 -316 l-17 -105 -100 -17 c-135 -23 -134 -23 -140 10 -4
15 -16 56 -29 91 l-22 64 27 198 c15 110 32 205 38 213 6 8 71 57 144 110 73
53 159 120 192 150 33 30 62 52 63 51 2 -2 -21 -73 -52 -157z m1008 80 c15
-33 33 -101 45 -177 17 -104 25 -130 49 -160 15 -20 43 -55 61 -78 29 -37 32
-45 21 -59 -14 -16 -142 -84 -158 -84 -5 0 -26 43 -47 96 l-38 97 7 146 c8
184 17 271 27 271 4 0 19 -24 33 -52z"/>
<path d="M803 886 c-73 -34 -108 -89 -107 -167 1 -108 53 -154 246 -219 154
-52 200 -107 164 -194 -21 -51 -77 -75 -172 -76 -75 0 -183 27 -219 54 -30 23
-35 20 -35 -28 0 -43 1 -44 52 -66 136 -58 340 -47 417 23 54 50 78 165 47
225 -32 60 -79 91 -212 139 -71 25 -138 53 -151 62 -48 36 -58 112 -19 154 50
54 188 60 292 13 l54 -25 0 43 c0 43 0 43 -56 65 -83 31 -229 30 -301 -3z"/>
<path d="M1300 903 c1 -5 68 -96 150 -203 l150 -195 0 -173 0 -173 48 3 47 3
5 175 5 175 141 185 c77 102 144 191 148 198 5 9 -6 12 -47 12 l-55 0 -118
-160 c-66 -87 -122 -159 -125 -160 -4 0 -60 72 -125 160 l-119 159 -52 1 c-29
0 -53 -3 -53 -7z"/>
<path d="M2127 903 c-4 -3 -7 -172 -7 -375 l0 -368 45 0 45 0 0 305 c0 168 3
305 8 305 4 -1 114 -138 246 -305 l238 -305 49 0 49 0 0 376 0 375 -42 -3 -43
-3 -3 -308 -2 -308 -222 283 c-277 355 -262 338 -313 338 -23 0 -45 -3 -48 -7z"/>
<path d="M2930 870 l0 -40 145 0 145 0 0 -335 0 -335 45 0 45 0 0 335 0 335
145 0 145 0 0 40 0 40 -335 0 -335 0 0 -40z"/>
<path d="M3730 536 l0 -376 45 0 45 0 0 150 0 150 103 0 102 -1 105 -147 106
-147 52 -3 c29 -2 52 1 52 5 0 4 -48 73 -105 153 l-105 145 47 21 c133 58 177
236 85 345 -52 63 -93 73 -324 77 l-208 4 0 -376z m424 271 c41 -27 59 -63 60
-121 0 -62 -19 -97 -67 -123 -25 -14 -63 -18 -179 -21 l-148 -4 0 147 0 148
154 -5 c122 -4 160 -8 180 -21z"/>
<path d="M4663 896 c-95 -31 -157 -90 -194 -183 -19 -48 -23 -77 -23 -173 -1
-148 18 -211 86 -286 70 -75 129 -97 273 -97 142 -1 199 17 272 86 67 63 93
129 100 249 12 197 -50 330 -182 390 -42 18 -70 23 -170 25 -81 2 -134 -2
-162 -11z m293 -91 c77 -34 108 -87 124 -207 16 -134 -15 -257 -80 -311 -95
-80 -306 -74 -391 12 -54 53 -72 125 -67 260 4 134 28 190 100 234 81 50 217
55 314 12z"/>
</g>
</svg>
