<?xml version="1.0" standalone="no"?>
<!DOCTYPE svg PUBLIC "-//W3C//DTD SVG 20010904//EN"
 "http://www.w3.org/TR/2001/REC-SVG-20010904/DTD/svg10.dtd">
<svg version="1.0" xmlns="http://www.w3.org/2000/svg"
 width="328.000000pt" height="328.000000pt" viewBox="0 0 328.000000 328.000000"
 preserveAspectRatio="xMidYMid meet">
<metadata>
Created by potrace 1.11, written by Peter Selinger 2001-2013
</metadata>
<g transform="translate(0.000000,328.000000) scale(0.100000,-0.100000)"
fill="#000000" stroke="none">
<path d="M1470 3274 c-14 -2 -68 -12 -120 -20 -52 -9 -148 -34 -213 -55 -561
-183 -972 -644 -1099 -1233 -30 -138 -33 -482 -5 -621 46 -224 149 -468 275
-645 86 -122 270 -306 392 -392 176 -125 398 -221 623 -270 139 -30 483 -33
622 -5 224 46 469 150 645 275 122 86 306 270 392 392 123 173 220 398 270
625 30 138 32 460 4 610 -110 590 -526 1072 -1090 1260 -176 59 -277 76 -486
80 -102 2 -196 2 -210 -1z m491 -83 c504 -103 953 -473 1139 -938 92 -232 125
-414 117 -653 -13 -389 -144 -720 -399 -1007 -105 -118 -118 -127 -169 -113
-34 9 -69 38 -175 140 -132 128 -165 150 -231 150 -15 0 -28 11 -39 33 -9 17
-28 46 -41 63 -34 45 -69 138 -88 231 l-16 81 30 70 c17 39 31 74 31 78 0 25
34 93 49 97 23 6 87 200 108 329 10 56 23 106 29 110 8 5 10 23 7 49 -5 33 -2
45 11 55 16 11 15 16 -9 65 -43 85 -54 125 -65 237 -22 235 -14 322 35 380 29
35 35 102 10 102 -12 0 -13 4 -5 19 16 31 12 69 -10 91 -11 11 -23 20 -28 20
-4 0 -46 -31 -93 -68 -60 -48 -97 -71 -124 -75 -48 -8 -75 -33 -114 -107 -31
-58 -52 -79 -120 -123 -45 -29 -51 -47 -14 -47 46 0 54 -10 42 -55 -17 -62
-45 -111 -125 -222 -87 -119 -127 -156 -288 -265 -117 -80 -144 -92 -370 -173
-68 -24 -91 -39 -155 -100 -56 -53 -90 -77 -127 -89 -80 -26 -133 -90 -178
-214 -28 -79 -73 -152 -108 -177 -16 -11 -48 -15 -113 -15 l-90 -1 73 -70 c41
-39 92 -79 115 -90 100 -45 209 -5 242 88 27 74 66 153 75 153 5 0 34 24 65
54 53 53 55 54 56 28 4 -70 -5 -99 -53 -171 -28 -42 -62 -88 -75 -103 -22 -23
-24 -30 -15 -60 14 -43 33 -257 26 -284 -3 -11 2 -48 10 -81 25 -96 26 -94
-70 -141 l-85 -42 -60 52 c-176 153 -356 432 -434 672 -57 177 -69 264 -69
491 0 179 3 225 22 311 76 351 265 672 520 885 248 207 527 331 824 369 118
14 408 4 519 -19z m-201 -2051 c10 -139 11 -178 0 -210 -11 -34 -11 -42 8 -72
11 -18 30 -57 41 -86 l21 -53 -32 -13 c-18 -8 -62 -17 -98 -21 -130 -14 -293
-45 -366 -71 -42 -14 -78 -23 -82 -20 -12 12 17 149 42 201 15 29 49 74 76
101 52 50 77 99 106 203 12 42 30 76 56 106 42 47 145 105 188 105 l27 0 13
-170z m-556 -66 c-20 -55 -45 -108 -55 -120 -17 -18 -18 -31 -13 -126 5 -68 2
-134 -6 -187 -14 -91 -6 -84 -115 -100 -67 -10 -75 -8 -75 19 0 11 -7 38 -17
61 -15 39 -15 50 1 177 10 75 23 145 28 156 5 12 56 54 112 94 57 40 118 88
137 108 18 19 35 31 37 26 1 -5 -14 -54 -34 -108z m731 65 c9 -17 25 -75 35
-130 17 -88 24 -106 60 -151 22 -28 39 -56 37 -62 -5 -15 -105 -68 -116 -62
-5 3 -21 36 -36 73 -26 65 -27 74 -21 178 7 111 16 185 22 185 2 0 11 -14 19
-31z"/>
</g>
</svg>
